<?xml version="1.0" standalone="no"?>
<!DOCTYPE svg PUBLIC "-//W3C//DTD SVG 1.1//EN" "http://www.w3.org/Graphics/SVG/1.1/DTD/svg11.dtd">
<svg xmlns="http://www.w3.org/2000/svg" data-id="Layer_1" data-name="Layer 1" viewBox="0 0 450.00002 450" width="450.0000305175781" height="450">
  <defs>
    <style>
      .cls-1 {
        fill: #eeff2f;
      }

      .cls-2 {
        fill: #fff;
      }
    </style>
  </defs>
  <g>
    <g>
      <rect class="cls-1" width="173.23213" height="172.91106"/>
      <polygon points="158.323 0 158.323 158.29 158.323 158.29 0 158.29 0 450 450 450 450 0 158.323 0"/>
    </g>
    <g>
      <path class="cls-2" d="M201.88985,92.08484c0-13.82318,9.23882-22.9963,23.18685-22.9963,13.88671,0,23.12334,9.17312,23.12334,22.9963,0,13.82538-9.23663,22.9985-23.12334,22.9985C211.12867,115.08334,201.88985,105.91022,201.88985,92.08484Zm23.18685,15.08044c8.54668,0,14.327-6.0935,14.327-15.08044,0-8.98474-5.78029-15.08043-14.327-15.08043-8.608,0-14.38829,6.09569-14.38829,15.08043C210.68841,101.07178,216.4687,107.16528,225.0767,107.16528Z"/>
      <path class="cls-2" d="M336.42932,70.09391h7.7932l14.34827,20.10725,14.15235-20.10725h7.85453V114.078h-8.67152l.0894-29.72062L359.4513,102.13847h-1.75884L345.10085,84.35735V114.078h-8.67153Z"/>
      <path class="cls-2" d="M69.448,203.55071H98.74688c9.9901,0,16.399,6.09351,16.399,15.5207,0,9.48633-6.40891,15.582-16.399,15.582H78.11957v12.88134H69.448Zm28.91991,23.31171c4.902,0,8.0429-3.01608,8.0429-7.72968,0-4.71141-3.14094-7.72749-8.0429-7.72749H78.11957v15.45717Z"/>
      <path class="cls-2" d="M201.89094,225.5422a23.15454,23.15454,0,1,1,23.15346,22.99794A23.0761,23.0761,0,0,1,201.89094,225.5422Zm23.16934,15.08044c8.54667,0,14.327-6.09351,14.327-15.08044,0-8.98474-5.78029-15.08044-14.327-15.08044-8.608,0-14.3883,6.0957-14.3883,15.08044C210.672,234.52913,216.45227,240.62264,225.06028,240.62264Z"/>
      <path class="cls-2" d="M336.68369,203.55071h7.79321L371.7153,233.083l-.06133-12.50461V203.55071h8.66933v43.98407H372.471l-27.24059-29.46873.12485,13.06971v16.399h-8.67153Z"/>
      <path class="cls-2" d="M203.22514,336.92739h7.7932l27.2384,29.53225-.06133-12.50461V336.92739h8.66934v43.98407h-7.85234l-27.24059-29.46874.12485,13.06972v16.399h-8.67153Z"/>
      <path class="cls-2" d="M69.44024,336.92739h44.29231v7.53912H77.98691V354.9604h29.60716v7.35075H77.98691v10.99766h35.74564v7.60265H69.44024Z"/>
      <path class="cls-2" d="M336.357,336.92739H380.65v7.791H362.75233v36.19306h-8.73286V344.7184H336.357Z"/>
      <polygon points="94.317 91.532 113.402 70.094 100.262 70.094 85.559 86.988 79.559 86.988 79.559 70.094 69.35 70.094 69.35 114.078 79.559 114.078 79.559 97.196 86.088 97.196 101.476 114.078 115.208 114.078 94.317 91.532"/>
    </g>
  </g>
</svg>